<?xml version="1.0" encoding="utf-8"?>
<!-- Generator: Adobe Illustrator 24.2.1, SVG Export Plug-In . SVG Version: 6.00 Build 0)  -->
<svg version="1.1" id="Layer_1" xmlns="http://www.w3.org/2000/svg" xmlns:xlink="http://www.w3.org/1999/xlink" x="0px" y="0px"
	 viewBox="0 0 595.3 595.3" style="enable-background:new 0 0 595.3 595.3;" xml:space="preserve">
<style type="text/css">
	.st0{fill:#FFFFFF;}
	.st1{fill:#B94894;}
	.st2{fill:#62B985;}
	.st3{fill:#F39C1D;}
</style>
<g>
	<path class="st0" d="M76.3,102.6c5.3-5.5,11-7.8,17.7-7.6c7.7,0.2,13.2,4.8,14.5,12.4c0.4,2.4,0.6,4.8,0.6,7.3
		c0.1,13.1,0,26.1,0.1,39.2c0,2.6-0.4,3.7-3.3,3.5c-5.4-0.3-10.7-0.2-16.1,0c-2.5,0.1-3-0.8-3-3.1c0.1-12.1,0.1-24.2,0-36.2
		c0-2.4,0.7-5.7-2.5-6.6c-3.2-0.9-5,1.8-6.9,3.9c-1.2,1.3-1.2,2.8-1.2,4.4c0,11.5-0.1,22.9,0.1,34.4c0,2.6-0.7,3.3-3.2,3.2
		c-5.5-0.2-11-0.2-16.5,0c-2.1,0.1-2.6-0.7-2.6-2.7c0.1-26.1,0.1-52.2,0-78.3c0-2,0.6-2.8,2.6-3c5.7-0.5,11.4-1.1,17.1-1.8
		c2.1-0.3,2.7,0.4,2.7,2.5C76.3,83.3,76.3,92.5,76.3,102.6z"/>
	<path class="st0" d="M273.5,159.3c-22.8-0.3-32.1-16.2-30.5-35.9c1.3-16.4,10.5-26.4,25-28.4c22.9-3.1,38.5,11.8,36.5,34.8
		c-1.1,13.1-6.4,23.1-19.5,27.7C281.3,158.9,277.4,159.4,273.5,159.3z M282,127.2c0-3.5-0.2-7-1.1-10.5c-0.9-3.5-2.8-5.8-6.8-5.9
		c-4,0-6.2,2.2-7,5.7c-1.8,7.2-1.6,14.5,0.2,21.6c0.8,3.3,2.9,5.2,6.5,5.2c3.6,0.1,5.6-2,6.7-5.1C281.8,134.8,282,131,282,127.2z"/>
	<path class="st0" d="M479.4,126.9c0-14.5,6.3-25.3,17.7-29.7c9-3.5,18.2-3.5,27.1,0.2c11.7,4.9,16,15,16.9,26.9
		c0.4,5-0.2,10-1.6,14.8c-4.3,14.2-17.7,22.1-33.6,20C488.6,156.8,479.4,145.5,479.4,126.9z M518.7,127c-0.1-1.9-0.1-3.9-0.3-5.8
		c-0.1-1.3-0.3-2.7-0.7-4c-1-4.3-3.2-6.3-6.8-6.3c-3.7-0.1-6.2,1.7-7.2,5.8c-1.8,7.2-1.6,14.5,0.3,21.6c0.8,3.1,2.9,4.9,6.3,5.1
		c3.6,0.1,5.7-1.8,6.8-4.9C518.5,134.8,518.7,130.9,518.7,127z"/>
	<path class="st0" d="M310.8,151.4c-7.2-13.8-1.6-26.4,13.4-30.2c4-1,8.2-1.2,12.3-1.5c1.4-0.1,4.1,1.6,4.3-1.5c0.2-2.9,0-6-3.6-7.1
		c-2.1-0.7-4.3-0.8-6.5-0.5c-3.9,0.5-7.8,1-11.5,2.2c-1.8,0.6-2.6,0.5-3.2-1.5c-1-3.4-2.1-6.7-3.3-10c-0.6-1.5-0.1-2.1,1.3-2.6
		c10.9-3.9,22.1-5.2,33.4-2.6c10,2.3,14.8,8.7,15,19.7c0.2,7.2,0,14.4,0.1,21.6c0,2.7,0,5.5,2.7,7.1c1.1,0.6,0.6,1.4,0.4,2.2
		c-1.1,3.6-2.2,7.2-3.2,10.8c-0.5,1.7-1.4,1.8-3,1.6c-5.5-0.8-10.4-2.7-13.7-7.9c-6.6,8.6-15.3,9.4-24.8,7.7
		C316.9,157.3,313.4,155,310.8,151.4z M341,135.8c-0.6-1.3,1.2-3.9-1.2-4.4c-2.7-0.5-5.7-0.4-8,1.5c-2.4,1.9-2.5,4.6-1.6,7.3
		c0.9,2.6,3,3.3,5.5,3.2C339.5,143.2,341,141.2,341,135.8z"/>
	<path class="st0" d="M155.8,133.6c-5.2,0-10.5,0.1-15.7,0c-2.1,0-2.4,0.7-1.9,2.6c1.6,6.1,7.6,8.9,15.5,6.9
		c2.7-0.7,5.3-1.9,7.5-3.6c1.6-1.2,2.4-0.8,3.4,0.7c2,2.9,4.1,5.8,6.3,8.5c1.2,1.6,0.9,2.3-0.5,3.5c-10.6,8.3-28.4,9.9-40.2,3.5
		c-6.3-3.4-10.5-8.7-12.7-15.4c-2.9-8.9-2.8-17.8,0.4-26.6c4.6-12.9,16.3-19.8,30.7-18.5c13.9,1.3,23.1,10.1,25.5,24
		c0.7,4.2,0.5,8.2-0.1,12.4c-0.3,1.8-1.1,2.2-2.6,2.1C166.1,133.6,160.9,133.6,155.8,133.6z M144.7,121.2c1.9,0,3.9,0,5.8,0
		c0.9,0,1.8-0.1,1.8-1.3c-0.1-3.2-0.1-6.5-2.5-8.9c-2.3-2.4-5.2-2.4-8.1-1c-2.2,1.1-5.4,8.6-4.2,10.3c1.3,2,3.8,0.5,5.7,0.9
		C143.7,121.3,144.2,121.2,144.7,121.2z"/>
	<path class="st0" d="M393.5,159.6c-8.7,0-16.6-2.3-23.6-7.4c-2-1.4-2.6-2.5-0.5-4.5c2.4-2.4,4.7-5,6.8-7.6c1.3-1.6,2.2-1.5,3.8-0.4
		c4.2,2.9,8.7,4.8,14,4.5c2.3-0.1,4.6-0.4,5.2-3.1c0.6-2.8-1.6-3.8-3.7-4.6c-4-1.4-8.1-2.6-12.1-4.2c-6.5-2.7-11.5-7.1-12.6-14.4
		c-1.3-8.2,2.1-15.5,9.8-19.1c12.2-5.7,24.3-5.2,35.9,1.9c2.1,1.3,3.2,2.6,1.1,4.7c-0.2,0.2-0.3,0.4-0.4,0.6
		c-1.7,2.7-2.9,6.2-5.3,7.8c-2.7,1.7-5.4-2-8.4-2.4c-2.4-0.3-4.8-1.1-7.2-0.8c-1.5,0.2-3.4,0.3-3.7,2.3c-0.4,2,1.1,2.9,2.6,3.4
		c2.6,1,5.2,2,7.9,2.8c3,0.9,6,2,8.8,3.4c12,6.2,13.6,21.8,3.2,30.5C408.8,158.1,401.4,159.6,393.5,159.6z"/>
	<path class="st0" d="M451.8,159.6c-11.6,0-19.6-2.3-26.7-7.6c-1.8-1.4-2.4-2.6-0.4-4.2c0.5-0.4,0.8-0.9,1.2-1.4
		c2.2-2.5,3.9-5.8,6.7-7.1c3-1.4,5.4,2.5,8.4,3.5c3.3,1,6.6,1.8,10,1.2c1.7-0.3,3.3-1.1,3.5-3.2c0.2-2-0.9-3.2-2.7-3.9
		c-2.8-1.1-5.7-2-8.6-3c-3.6-1.1-7.1-2.6-10.1-4.9c-10.1-7.7-9.7-22.1,0.7-29.2c10.2-7,29-6.2,38.7,1.4c1.4,1.1,1.9,2,0.7,3.5
		c-0.3,0.4-0.5,0.8-0.8,1.2c-1.7,2.7-2.9,6.2-5.3,7.8c-2.7,1.7-5.4-2-8.4-2.4c-2.9-0.4-5.7-1.3-8.7-0.5c-1.1,0.3-2.1,0.7-2.4,2
		c-0.3,1.4,0.5,2.4,1.7,2.9c2.2,1,4.5,1.9,6.8,2.7c3.3,1.1,6.7,2.1,9.9,3.6c6.3,2.9,10.4,7.4,10.9,14.7c0.6,7.8-2.4,13.8-8.9,18
		C462.3,158.4,455.8,159.6,451.8,159.6z"/>
	<path class="st0" d="M213,108.9c0-10.9,0-21.7,0-32.6c0-2.2,0.4-3.2,2.9-3.4c5.5-0.3,11-0.8,16.4-1.7c2.8-0.4,3,0.6,3,2.8
		c-0.1,20.6,0,41.2,0,61.9c0,2.9-0.9,6.7,4.3,5.8c1.1-0.2,1,0.9,1.1,1.5c1.1,4,2.1,8,3.2,12c0.4,1.5-0.2,1.9-1.5,2.2
		c-5.6,1.6-11.3,2.1-17,0.9c-7.1-1.5-11.8-7.1-12-15.1c-0.4-11.5-0.1-22.9-0.1-34.4C213.1,108.9,213.1,108.9,213,108.9z"/>
	<path class="st0" d="M201.6,105.7c0,10.6,0,21.2,0,31.8c0,2.7,0.5,4.8,3.8,4.2c1.8-0.3,1.7,1.1,1.9,2c1,3.6,1.8,7.3,2.9,10.9
		c0.6,1.9-0.2,2.6-1.9,3c-5.3,1.3-10.6,1.8-16,0.8c-7.7-1.4-12.6-7.8-12.7-16.9c-0.2-15-0.1-30-0.1-45c0-6.8,0.1-13.7,0-20.5
		c0-2,0.3-3,2.7-3.2c5.6-0.4,11.2-0.9,16.7-1.7c2.6-0.4,2.7,0.6,2.7,2.6C201.6,84.4,201.6,95.1,201.6,105.7z"/>
</g>
<g>
	<path class="st1" d="M414.4,241c3.8-0.3,4.9,3.1,6.8,5.2c66.3,76.2,48,195.1-38.2,247.9c-6.7,4.1-13,9.3-21.2,10.3
		c-4.7,1.3-9.4,2.9-14.2,4c-8.8,2-17.8,4.3-26.6,2.9c-21.2-3.3-40.8-11.1-57.7-24.4c-10.2-8.1-20.6-16.3-26.5-28.6
		c19.9,4.1,38.9,0,57.5-6.4c52.6-18.2,97.1-46.9,123.5-98.1c19.2-35.5,21.6-70.9-0.4-106.2C416.1,245.4,413.8,243.9,414.4,241z"/>
	<path class="st2" d="M236.8,458.2c5.9,12.3,16.3,20.5,26.5,28.6c16.9,13.4,36.5,21.1,57.7,24.4c8.9,1.4,17.9-1,26.6-2.9
		c4.8-1.1,9.5-2.6,14.2-4c-1.1,4.8-5.7,4.3-8.8,5.4c-80.2,29.2-168.7-8.9-204.2-87.7c-7.3-16.2-11.6-33.2-13.7-50.8
		c-0.4-12.4,1.3-24.7,3.8-36.9c9-43.3,52-80.7,93.8-81.7c-5.9,7.1-9.9,15.2-12.9,23.8c-13.5,39.6-16.8,80.3-10.9,121.5
		c3.1,21.7,9.6,42.5,26.1,58.6c0.6,0.6,1.2,1.2,1.8,1.7C236.8,458.5,236.8,458.2,236.8,458.2z"/>
	<path class="st3" d="M232.7,252.8c-41.8,0.9-84.9,38.4-93.8,81.7c-2.5,12.2-4.2,24.4-3.8,36.9c-6.4-52.3,18.2-130.2,93.2-165.1
		c51.9-24.1,103.2-21.7,153,7.1c1.6,1,3.1,2.3,4.6,3.4c-0.2,1.9,0.1,3.9-0.6,5.7c-7,19.6-14,39.2-21.1,58.8
		c-0.9,2.5-1.8,5.3-4.7,6.5c-22.7-13.6-46-25.9-72.1-32C269.3,251.5,251.2,248.8,232.7,252.8z"/>
	<path class="st3" d="M359.5,287.6c2.9-1.2,3.8-3.9,4.7-6.5c7.1-19.6,14.2-39.1,21.1-58.8c0.6-1.7,0.4-3.8,0.6-5.7
		c5.6,2.7,10.5,6.3,15,10.6c0.6,0.7,1.3,1.5,1.9,2.2c0,0-0.1-0.2-0.1-0.2c0.6,1.4,1.6,2.1,3.2,2.1c0,0-0.1-0.1-0.1-0.1
		c0.2,1,0.7,1.6,1.8,1.6c0,0-0.1,0-0.1,0c0.1,1.1,0.6,1.7,1.7,1.7c0,0-0.1-0.1-0.1-0.1c0,1.1,0.6,1.7,1.7,1.7c0,0-0.1-0.1-0.1-0.1
		c-0.4,1.7,0.1,2.8,1.9,3.3c0,0-0.1-0.1-0.1-0.1c0.1,1,0.6,1.7,1.7,1.7c0,0,0-0.2,0-0.2c-0.6,2.9,1.7,4.5,3,6.5
		c22,35.3,19.7,70.7,0.4,106.2c-0.6-11.5-7.6-19.7-14.5-27.9C390.7,310.8,375.1,299.2,359.5,287.6z"/>
	<path class="st1" d="M405.8,231.4c-1.5,0.1-2.6-0.6-3.2-2.1C404.2,229.3,405.3,230,405.8,231.4z"/>
	<path class="st1" d="M412.7,239.5c-1.7-0.5-2.2-1.6-1.9-3.3C412.3,236.8,413.7,237.5,412.7,239.5z"/>
	<path class="st1" d="M402.8,229.6c-0.6-0.7-1.3-1.5-1.9-2.2C401.5,228.1,402.1,228.8,402.8,229.6z"/>
	<path class="st1" d="M407.5,233c-1.1,0-1.6-0.6-1.8-1.6C406.3,231.9,406.9,232.5,407.5,233z"/>
	<path class="st1" d="M409.2,234.6c-1.1,0-1.7-0.6-1.7-1.7C408,233.5,408.6,234.1,409.2,234.6z"/>
	<path class="st1" d="M410.9,236.3c-1.1,0-1.7-0.6-1.7-1.7C410.2,234.7,410.8,235.2,410.9,236.3z"/>
	<path class="st1" d="M414.3,241.1c-1.1,0-1.6-0.7-1.7-1.7C414.2,238.9,414.8,239.5,414.3,241.1z"/>
	<path class="st1" d="M235,456.7c1,0.2,2,0.4,1.8,1.7C236.2,457.9,235.6,457.3,235,456.7z"/>
</g>
</svg>
