<?xml version="1.0" encoding="utf-8"?>
<!-- Generator: Adobe Illustrator 24.2.1, SVG Export Plug-In . SVG Version: 6.00 Build 0)  -->
<svg version="1.1" id="Layer_1" xmlns="http://www.w3.org/2000/svg" xmlns:xlink="http://www.w3.org/1999/xlink" x="0px" y="0px"
	 viewBox="0 0 88.4 17.8" style="enable-background:new 0 0 88.4 17.8;" xml:space="preserve">
<style type="text/css">
	.st0{fill:#FFFFFF;}
</style>
<g>
	<path class="st0" d="M0.4,13.6c-0.1-0.1-0.1-0.1,0-0.2c0.1-0.1,0.1-0.1,0.3-0.1l0.1,0c0,0,0,0,0-0.1c0.3-0.4,0.7-0.9,1-1.5
		S2.6,10.6,3,10C3.3,9.3,3.7,8.7,4.1,8S4.7,6.8,5,6.2C5.3,5.6,5.5,5,5.6,4.6c0.1-0.5,0.2-0.9,0.2-1.2c0,0,0-0.1,0.1,0
		c0.1,0,0.1,0.1,0.2,0.1c0.1,0,0.2,0.1,0.3,0.2c0.1,0.1,0.2,0.2,0.3,0.2C6.9,4,7,4,7,4.1c0.1,0.1,0.1,0.1,0.1,0.2
		c0,0.2-0.1,0.6-0.3,1C6.6,5.7,6.4,6.2,6.1,6.7c-0.3,0.5-0.6,1.1-1,1.7C4.8,9,4.4,9.6,4,10.2s-0.8,1.1-1.3,1.7
		c-0.4,0.5-0.8,1-1.2,1.4h0.3c0.3,0,0.7,0,1.1,0.1c0.4,0.1,0.8,0.1,1.3,0.2c0.5,0.1,1.1,0.1,1.6,0.2s1.1,0.1,1.7,0.1
		c0.5,0,1,0,1.4-0.1c0.5-0.1,0.9-0.2,1.4-0.4c0,0,0.1,0,0.1,0.1c0,0.1,0,0.2,0,0.3c0,0.1,0,0.2-0.1,0.3c0,0.1-0.1,0.1-0.1,0.2h0
		c-0.3,0.2-0.6,0.4-1,0.5c-0.4,0.1-0.8,0.1-1.2,0.1c-0.6,0-1.2-0.1-1.9-0.2c-0.7-0.1-1.3-0.3-2-0.4c-0.6-0.1-1.2-0.2-1.7-0.3
		c-0.5-0.1-1-0.1-1.4-0.1c-0.1,0-0.1,0-0.2,0C0.7,13.6,0.6,13.6,0.4,13.6L0.4,13.6z"/>
	<path class="st0" d="M10.7,8.9c-0.3,0.5-0.7,1-1.2,1.4c-0.5,0.4-1.1,0.6-1.7,0.8v0.1c0,0.2,0,0.4,0.1,0.7c0.1,0.2,0.2,0.4,0.4,0.4
		c0.1,0,0.3,0,0.5,0C9,12.2,9.2,12.1,9.4,12c0.2-0.1,0.4-0.3,0.6-0.5c0.2-0.2,0.4-0.5,0.6-0.8c0.1-0.2,0.2-0.3,0.3-0.5
		s0.2-0.3,0.3-0.4c0-0.1,0.1-0.1,0.2-0.1c0.1,0,0.1,0,0.2,0c0.1,0,0.1,0,0.1,0.1c0,0,0,0.1,0,0.2l-0.2,0.3c-0.2,0.3-0.4,0.6-0.6,0.9
		c-0.2,0.3-0.5,0.7-0.9,1c-0.2,0.2-0.4,0.3-0.6,0.4c-0.2,0.1-0.4,0.2-0.6,0.2s-0.3,0.1-0.5,0.1c-0.1,0-0.3,0-0.3,0
		c-0.5,0-0.9-0.1-1.2-0.4c-0.3-0.3-0.4-0.6-0.5-1c0-0.4,0.1-0.8,0.2-1.2C6.8,9.9,7,9.4,7.4,8.9c0.1-0.1,0.3-0.3,0.5-0.5
		C8,8.3,8.2,8.1,8.5,8C8.7,7.8,9,7.7,9.3,7.6c0.3-0.1,0.5-0.1,0.8-0.1c0.3,0,0.5,0.1,0.6,0.2C10.9,7.9,11,8,11,8.2
		C11,8.4,10.9,8.7,10.7,8.9z M10.1,8C9.8,8.1,9.5,8.2,9.3,8.4C9,8.6,8.8,8.9,8.6,9.2C8.4,9.4,8.3,9.7,8.1,10
		c-0.1,0.3-0.2,0.6-0.3,0.8c0.5-0.2,1-0.4,1.4-0.8c0.4-0.3,0.7-0.8,1-1.3c0.1-0.1,0.1-0.3,0.1-0.4c0-0.1,0-0.2-0.1-0.2
		C10.2,8.1,10.2,8,10.1,8z"/>
	<path class="st0" d="M10.2,11.6c0-0.2,0.1-0.4,0.2-0.7c0.1-0.2,0.3-0.4,0.4-0.5c0-0.1,0.1-0.1,0.1-0.2c0.1-0.1,0.1-0.1,0.1-0.2
		c0.2-0.3,0.4-0.6,0.6-0.9c0.2-0.3,0.4-0.6,0.6-0.9c0-0.1,0.1-0.1,0.1-0.2c0,0,0.1-0.1,0.1-0.2c0.1-0.2,0.2-0.3,0.4-0.5
		c0.1-0.2,0.4-0.4,0.6-0.6c0.1,0,0.2,0.1,0.3,0.2C14,7,14.1,7,14.2,7.1c0.1,0.1,0.2,0.2,0.2,0.2c0,0.1,0,0.1,0,0.2h0
		c-0.1,0.1-0.2,0.2-0.2,0.2C14.1,7.9,14.1,8,14,8.1l-0.1,0.2c-0.1,0.2-0.2,0.5-0.3,0.7c-0.1,0.3-0.1,0.5-0.1,0.8c0,0.1,0,0.3,0,0.4
		c0,0.1,0,0.3,0,0.4l0,0.6c0,0.3,0,0.5-0.1,0.7c-0.1,0.2-0.2,0.4-0.4,0.5c-0.2,0.1-0.4,0.3-0.6,0.3c-0.2,0.1-0.5,0.1-0.7,0.1
		c-0.5,0-0.9-0.2-1.2-0.4C10.3,12.2,10.2,11.9,10.2,11.6z M12.2,9.8c0-0.1,0-0.3,0-0.4c0-0.1,0-0.3,0.1-0.4
		c-0.1,0.1-0.2,0.3-0.3,0.4c-0.1,0.2-0.2,0.3-0.3,0.4l-0.2,0.3c0.1,0,0.2,0.1,0.3,0.1c0,0,0,0.1,0.1,0.2c0,0.1,0.1,0.2,0.1,0.3
		c0,0.1,0.1,0.2,0.1,0.3c0,0.1,0,0.1,0,0.2C12,11,11.8,11,11.7,11c-0.1,0-0.2,0-0.3,0.1s-0.2,0.1-0.3,0.1c-0.1,0.1-0.1,0.1-0.2,0.2
		c0,0.1-0.1,0.2-0.1,0.3c0,0.1,0,0.1,0,0.2c0,0.1,0,0.1,0.1,0.2c0.1,0.1,0.2,0.2,0.3,0.3c0.1,0.1,0.2,0.1,0.3,0.1
		c0.1,0,0.2,0,0.3-0.1c0.1-0.1,0.2-0.1,0.2-0.2c0.1-0.1,0.1-0.2,0.1-0.3c0-0.1,0-0.3,0-0.4c0-0.1,0-0.2,0-0.4c0-0.1,0-0.3,0-0.4
		c0-0.1,0-0.3,0-0.4C12.3,10.1,12.2,10,12.2,9.8z"/>
	<path class="st0" d="M17.9,8.8c0,0.1-0.1,0.1-0.3,0c-0.1-0.1-0.3-0.1-0.5-0.3c-0.2-0.1-0.3-0.2-0.4-0.3C16.6,8.1,16.5,8,16.5,8
		c0.1-0.3,0.3-0.6,0.6-0.9c0.2-0.3,0.5-0.6,0.8-0.9c0.3-0.3,0.6-0.6,1-0.9c0.4-0.3,0.7-0.5,1.1-0.7c0.4-0.2,0.8-0.4,1.2-0.5
		C21.6,4,22,3.9,22.3,3.9c0.1,0,0.2,0,0.4,0.1c0.1,0,0.2,0.1,0.3,0.2c0.1,0.1,0.2,0.2,0.3,0.3c0.1,0.1,0.1,0.2,0.1,0.3
		c0,0.2,0,0.5-0.1,0.8c-0.1,0.3-0.2,0.7-0.4,1.1c-0.2,0.4-0.4,0.8-0.6,1.2c-0.2,0.4-0.5,0.9-0.7,1.3c-0.2,0.4-0.5,0.9-0.7,1.3
		c-0.2,0.4-0.5,0.8-0.7,1.2c-0.1,0.2-0.3,0.4-0.4,0.6c-0.1,0.2-0.2,0.4-0.3,0.5c-0.1,0.2-0.2,0.3-0.2,0.4c0,0.1-0.1,0.2-0.1,0.2
		c0,0.1,0,0.1,0.1,0.1c0,0,0.1,0.1,0.1,0.1c0.6-0.4,1.2-0.8,1.7-1.3c0.6-0.5,1.1-1,1.7-1.5c0.5-0.6,1.1-1.1,1.6-1.7
		c0.5-0.6,1-1.2,1.4-1.9s0.8-1.3,1.2-1.9c0.4-0.6,0.7-1.3,0.9-1.9c0-0.1,0.1-0.1,0.2,0c0.1,0.1,0.2,0.1,0.3,0.2
		c0.1,0.1,0.2,0.2,0.3,0.3c0.1,0.1,0.1,0.2,0.1,0.3c-0.2,0.4-0.4,0.9-0.8,1.4c-0.3,0.5-0.7,1-1.1,1.6c-0.4,0.5-0.8,1.1-1.3,1.6
		c-0.5,0.6-0.9,1.1-1.4,1.6c-0.5,0.5-1,1-1.5,1.5c-0.5,0.5-1,0.9-1.4,1.2c-0.5,0.3-0.9,0.6-1.3,0.8c-0.4,0.2-0.7,0.3-1,0.3
		c-0.1,0-0.2,0-0.4-0.1c-0.1,0-0.2-0.1-0.3-0.2c-0.1-0.1-0.2-0.2-0.2-0.3c-0.1-0.1-0.1-0.2-0.1-0.3c0.2-0.7,0.5-1.3,0.9-2
		c0.4-0.6,0.7-1.3,1.1-1.9c0.4-0.6,0.8-1.3,1.2-2c0.4-0.7,0.7-1.5,1-2.2c0-0.1,0.1-0.2,0.1-0.3c0-0.1,0-0.2-0.1-0.2
		c-0.1,0-0.4,0.1-0.6,0.3c-0.3,0.2-0.6,0.4-0.9,0.6c-0.3,0.2-0.7,0.5-1,0.8c-0.3,0.3-0.7,0.6-0.9,0.9c-0.3,0.3-0.5,0.6-0.7,0.9
		C17.9,8.4,17.8,8.6,17.9,8.8L17.9,8.8z"/>
	<path class="st0" d="M29.3,8.9c-0.3,0.5-0.7,1-1.2,1.4c-0.5,0.4-1.1,0.6-1.7,0.8v0.1c0,0.2,0,0.4,0.1,0.7c0.1,0.2,0.2,0.4,0.4,0.4
		c0.1,0,0.3,0,0.5,0c0.2-0.1,0.4-0.1,0.6-0.3c0.2-0.1,0.4-0.3,0.6-0.5c0.2-0.2,0.4-0.5,0.6-0.8c0.1-0.2,0.2-0.3,0.3-0.5
		s0.2-0.3,0.3-0.4c0-0.1,0.1-0.1,0.2-0.1c0.1,0,0.1,0,0.2,0c0.1,0,0.1,0,0.1,0.1c0,0,0,0.1,0,0.2l-0.2,0.3c-0.2,0.3-0.4,0.6-0.6,0.9
		c-0.2,0.3-0.5,0.7-0.9,1c-0.2,0.2-0.4,0.3-0.6,0.4c-0.2,0.1-0.4,0.2-0.6,0.2c-0.2,0-0.3,0.1-0.5,0.1c-0.1,0-0.3,0-0.3,0
		c-0.5,0-0.9-0.1-1.2-0.4s-0.4-0.6-0.5-1c0-0.4,0.1-0.8,0.2-1.2c0.2-0.4,0.4-0.8,0.8-1.3c0.1-0.1,0.3-0.3,0.5-0.5
		c0.2-0.2,0.4-0.3,0.6-0.5c0.2-0.1,0.5-0.3,0.8-0.4c0.3-0.1,0.5-0.1,0.8-0.1c0.3,0,0.5,0.1,0.6,0.2c0.2,0.1,0.2,0.3,0.2,0.5
		C29.5,8.4,29.4,8.7,29.3,8.9z M28.6,8c-0.3,0.1-0.5,0.2-0.8,0.4c-0.2,0.2-0.5,0.4-0.7,0.7C27,9.4,26.9,9.7,26.7,10
		c-0.1,0.3-0.2,0.6-0.3,0.8c0.5-0.2,1-0.4,1.4-0.8c0.4-0.3,0.7-0.8,1-1.3c0.1-0.1,0.1-0.3,0.1-0.4c0-0.1,0-0.2-0.1-0.2
		S28.7,8,28.6,8z"/>
	<path class="st0" d="M34.7,11.4c-0.2,0.2-0.4,0.4-0.6,0.7c-0.2,0.2-0.4,0.4-0.7,0.5c-0.2,0.2-0.5,0.2-0.7,0.2c-0.1,0-0.3,0-0.4-0.1
		s-0.2-0.1-0.3-0.2c-0.1-0.1-0.2-0.2-0.2-0.3c-0.1-0.1-0.1-0.3-0.1-0.5c0-0.2,0-0.3,0.1-0.5c0-0.2,0.1-0.4,0.2-0.6
		c0.1-0.2,0.2-0.4,0.2-0.7c0.1-0.2,0.2-0.5,0.3-0.8c0.1-0.1,0.1-0.3,0.1-0.4c0-0.1,0.1-0.2,0.1-0.3c0-0.1,0-0.1-0.1-0.1
		c-0.1,0-0.2,0.1-0.4,0.3C32,9,31.7,9.2,31.5,9.4c-0.2,0.2-0.4,0.5-0.6,0.7c-0.2,0.4-0.3,0.8-0.5,1.3c-0.1,0.4-0.2,0.9-0.2,1.3
		c0,0.1-0.1,0.1-0.2,0.1c-0.1,0-0.2,0-0.3-0.1c-0.1-0.1-0.2-0.1-0.3-0.2c-0.1-0.1-0.2-0.1-0.2-0.2c0-0.5,0.1-1,0.3-1.6
		c0.2-0.5,0.4-1,0.5-1.6c0.1-0.2,0.2-0.5,0.3-0.8c0.1-0.3,0.2-0.5,0.3-0.8c0.1,0,0.2,0,0.3,0c0.1,0,0.3,0.1,0.4,0.2
		c0.1,0.1,0.2,0.2,0.3,0.3c0.1,0.1,0.1,0.2,0.1,0.4h0c0,0,0,0,0,0C32,8.2,32.3,8,32.6,7.8c0.3-0.2,0.6-0.3,0.9-0.3
		c0.1,0,0.2,0,0.3,0.1c0.1,0.1,0.2,0.1,0.3,0.2c0.1,0.1,0.1,0.2,0.2,0.3c0,0.1,0.1,0.2,0,0.3C34.1,8.7,34,9,33.9,9.3
		c-0.1,0.3-0.2,0.5-0.3,0.7c-0.1,0.2-0.1,0.3-0.2,0.5c-0.1,0.2-0.1,0.3-0.2,0.5c-0.1,0.2-0.1,0.3-0.1,0.5c0,0.2-0.1,0.3-0.1,0.5
		c0,0,0,0.1,0,0.1c0,0,0.1,0,0.2,0c0.2-0.1,0.4-0.3,0.7-0.5c0.3-0.2,0.5-0.6,0.8-1c0.1-0.2,0.3-0.4,0.4-0.6l0.2-0.3
		c0,0,0.1-0.1,0.1-0.1c0.1,0,0.1,0,0.2,0c0.1,0,0.1,0,0.1,0.1c0,0,0,0.1,0,0.1l-0.5,0.9C35,11,34.9,11.2,34.7,11.4z"/>
	<path class="st0" d="M35.5,7.6c-0.1,0-0.1,0-0.2,0c0,0-0.1,0-0.1-0.1c0,0,0-0.1,0-0.1c0,0,0-0.1,0.1-0.1c0.5-0.3,1-0.6,1.5-0.8
		c0.4-0.8,0.7-1.5,0.8-2.1c0.1,0,0.2,0,0.3,0c0.1,0,0.3,0.1,0.4,0.2c0.1,0.1,0.2,0.2,0.3,0.3c0.1,0.1,0.1,0.2,0.1,0.4
		c0,0.1-0.1,0.2-0.1,0.3c-0.1,0.1-0.1,0.3-0.2,0.5c0.5-0.1,1-0.2,1.6-0.2c0.1,0,0.2,0,0.3,0c0.1,0,0.2,0,0.3,0c0,0.1,0,0.1,0,0.2
		s-0.1,0.1-0.1,0.2c0,0.1-0.1,0.1-0.2,0.1c-0.1,0-0.1,0.1-0.2,0c-0.1,0-0.2,0-0.2,0c-0.1,0-0.2,0-0.2,0c-0.2,0-0.5,0-0.7,0
		c-0.2,0-0.5,0.1-0.7,0.1l-0.5,1l-0.1,0.1c-0.1,0.1-0.1,0.3-0.3,0.5c-0.1,0.2-0.2,0.5-0.4,0.7s-0.3,0.5-0.4,0.8
		c-0.1,0.3-0.2,0.6-0.4,0.8c-0.1,0.3-0.2,0.5-0.3,0.7s-0.1,0.4-0.1,0.6c0,0.2,0,0.2,0.1,0.3h0.1c0.2-0.1,0.4-0.2,0.5-0.3
		c0.2-0.2,0.3-0.3,0.5-0.5c0.2-0.2,0.3-0.4,0.5-0.6c0.1-0.2,0.3-0.4,0.4-0.6h0c0-0.1,0.1-0.1,0.1-0.2C38,9.8,38,9.8,38,9.7
		c0,0,0.1-0.1,0.1-0.1c0.1,0,0.1,0,0.2,0c0.1,0,0.1,0,0.1,0.1c0,0,0,0.1,0,0.1l-0.3,0.4c-0.1,0.2-0.2,0.3-0.3,0.5
		c-0.1,0.2-0.2,0.4-0.4,0.5c-0.1,0.2-0.3,0.3-0.4,0.5c-0.1,0.2-0.3,0.3-0.5,0.4c0,0-0.1,0.1-0.2,0.1c-0.1,0.1-0.2,0.1-0.3,0.2
		c-0.1,0-0.2,0.1-0.3,0.1c-0.1,0-0.3,0-0.4,0c-0.3,0-0.5-0.1-0.6-0.3c-0.1-0.2-0.2-0.4-0.2-0.7c0-0.1,0-0.1,0-0.2c0-0.1,0-0.1,0-0.2
		c0-0.3,0.1-0.6,0.2-0.9c0.1-0.3,0.2-0.6,0.3-0.9c0.1-0.3,0.3-0.6,0.4-0.9C35.8,8.3,36,8,36.1,7.7l0.3-0.6c-0.2,0.1-0.3,0.1-0.5,0.2
		C35.8,7.4,35.6,7.5,35.5,7.6L35.5,7.6z"/>
	<path class="st0" d="M37,11.6c0-0.2,0.1-0.4,0.2-0.7c0.1-0.2,0.3-0.4,0.4-0.5c0-0.1,0.1-0.1,0.1-0.2c0.1-0.1,0.1-0.1,0.1-0.2
		c0.2-0.3,0.4-0.6,0.6-0.9s0.4-0.6,0.6-0.9c0-0.1,0.1-0.1,0.1-0.2c0,0,0.1-0.1,0.1-0.2c0.1-0.2,0.2-0.3,0.4-0.5
		C39.8,7.2,40,7,40.3,6.7c0.1,0,0.2,0.1,0.3,0.2C40.7,7,40.8,7,40.9,7.1c0.1,0.1,0.2,0.2,0.2,0.2c0,0.1,0,0.1,0,0.2h0
		C41,7.6,41,7.7,40.9,7.8c-0.1,0.1-0.1,0.2-0.2,0.3l-0.1,0.2c-0.1,0.2-0.2,0.5-0.3,0.7c-0.1,0.3-0.1,0.5-0.1,0.8c0,0.1,0,0.3,0,0.4
		c0,0.1,0,0.3,0,0.4l0,0.6c0,0.3,0,0.5-0.1,0.7c-0.1,0.2-0.2,0.4-0.4,0.5c-0.2,0.1-0.4,0.3-0.6,0.3c-0.2,0.1-0.5,0.1-0.7,0.1
		c-0.5,0-0.9-0.2-1.2-0.4C37.1,12.2,37,11.9,37,11.6z M39,9.8c0-0.1,0-0.3,0-0.4c0-0.1,0-0.3,0.1-0.4c-0.1,0.1-0.2,0.3-0.3,0.4
		s-0.2,0.3-0.3,0.4l-0.2,0.3c0.1,0,0.2,0.1,0.3,0.1c0,0,0,0.1,0.1,0.2c0,0.1,0.1,0.2,0.1,0.3c0,0.1,0.1,0.2,0.1,0.3
		c0,0.1,0,0.1,0,0.2C38.7,11,38.6,11,38.4,11c-0.1,0-0.2,0-0.3,0.1s-0.2,0.1-0.3,0.1c-0.1,0.1-0.1,0.1-0.2,0.2
		c0,0.1-0.1,0.2-0.1,0.3c0,0.1,0,0.1,0,0.2s0,0.1,0.1,0.2c0.1,0.1,0.2,0.2,0.3,0.3c0.1,0.1,0.2,0.1,0.3,0.1c0.1,0,0.2,0,0.3-0.1
		c0.1-0.1,0.2-0.1,0.2-0.2c0.1-0.1,0.1-0.2,0.1-0.3c0-0.1,0-0.3,0-0.4c0-0.1,0-0.2,0-0.4c0-0.1,0-0.3,0-0.4c0-0.1,0-0.3,0-0.4
		C39,10.1,39,10,39,9.8z"/>
	<path class="st0" d="M50.9,9.9c-0.3,0.5-0.6,1.1-0.9,1.6c-0.4,0.5-0.8,1-1.2,1.4c-0.4,0.4-0.9,0.7-1.4,1c-0.5,0.2-1,0.4-1.6,0.3
		c-0.3,0-0.5-0.1-0.8-0.2c-0.2-0.1-0.4-0.2-0.6-0.4c-0.2-0.2-0.3-0.4-0.4-0.6c-0.1-0.2-0.2-0.5-0.2-0.7c0-0.4,0-0.8,0.1-1.2
		c0.1-0.4,0.2-0.9,0.4-1.4c0.2-0.5,0.4-1,0.6-1.5c0.3-0.5,0.5-1,0.9-1.5c0.3-0.5,0.7-0.9,1-1.3c0.4-0.4,0.8-0.8,1.2-1.1
		c0.4-0.3,0.8-0.6,1.3-0.7c0.4-0.2,0.9-0.3,1.3-0.3c0.5,0,0.9,0.1,1.1,0.3c0.2,0.2,0.3,0.4,0.3,0.7c0,0.2,0,0.3-0.1,0.5
		c-0.1,0.2-0.1,0.4-0.2,0.6c-0.1,0.2-0.2,0.4-0.3,0.6c-0.1,0.2-0.2,0.4-0.4,0.6c0,0.1-0.1,0.1-0.2,0.2c-0.1,0.1-0.3,0.1-0.4,0.1
		c-0.1,0-0.2,0-0.2,0c-0.1,0-0.2,0-0.2-0.1c0.1-0.1,0.2-0.2,0.4-0.4s0.3-0.4,0.4-0.6C50.8,5.4,50.9,5.2,51,5
		c0.1-0.2,0.2-0.4,0.2-0.6c0-0.1,0.1-0.2,0.1-0.3c0-0.1,0-0.2-0.1-0.3c-0.1-0.1-0.2-0.1-0.4-0.1c-0.3,0-0.6,0.1-0.9,0.4
		c-0.3,0.2-0.6,0.5-0.9,0.8c-0.3,0.3-0.6,0.7-0.9,1.1c-0.3,0.4-0.6,0.8-0.8,1.2c-0.2,0.4-0.5,0.8-0.6,1.1c-0.2,0.4-0.3,0.7-0.4,0.9
		C46,9.4,45.9,9.7,45.8,10c-0.1,0.3-0.2,0.6-0.3,1c-0.1,0.4-0.1,0.7-0.1,1.1c0,0.4,0.1,0.8,0.2,1.1c0.1,0.3,0.4,0.4,0.6,0.4
		c0.3,0,0.6,0,0.8-0.1c0.3-0.1,0.5-0.2,0.8-0.4c0.3-0.2,0.5-0.4,0.8-0.7c0.2-0.3,0.5-0.5,0.7-0.8c0.2-0.3,0.4-0.6,0.6-0.9
		c0.2-0.3,0.3-0.6,0.5-0.8c0,0,0.1-0.1,0.1-0.1c0.1,0,0.1,0,0.2,0c0.1,0,0.1,0,0.2,0.1C51,9.8,51,9.9,50.9,9.9L50.9,9.9z"/>
	<path class="st0" d="M53.6,7.5c0.2,0,0.3,0.1,0.4,0.1s0.2,0.1,0.3,0.2s0.1,0.2,0.2,0.3c0,0.1,0.1,0.2,0.1,0.3
		c0.1,0.1,0.2,0.3,0.3,0.6c0,0,0,0.1,0,0.1c0,0,0,0.1,0,0.2c0,0.3,0,0.5-0.1,0.8c-0.1,0.3-0.2,0.5-0.3,0.8c-0.1,0.3-0.3,0.5-0.5,0.7
		c-0.2,0.2-0.4,0.4-0.6,0.6c-0.2,0.2-0.4,0.3-0.7,0.4c-0.2,0.1-0.5,0.1-0.7,0.1c-0.4,0-0.8-0.1-1.1-0.4c-0.3-0.3-0.6-0.6-0.7-1.1
		c0-0.2-0.1-0.3-0.1-0.4c0-0.4,0.1-0.8,0.3-1.2s0.5-0.8,0.8-1.1c0.3-0.3,0.7-0.6,1.1-0.8C52.7,7.5,53.1,7.5,53.6,7.5z M53.3,9.6
		C53.3,9.6,53.3,9.5,53.3,9.6c-0.1-0.2-0.1-0.2-0.2-0.3c0-0.1,0-0.1,0-0.2s0-0.1,0-0.2c0-0.1,0-0.1,0.1-0.2c0.1-0.1,0.1-0.1,0.2-0.2
		c0.1,0,0.1-0.1,0.2-0.1c0.1,0,0.1-0.1,0.1-0.1c0.1,0,0.1-0.1,0.2-0.1c0-0.1,0-0.2-0.1-0.3C53.8,8,53.7,8,53.5,8
		C53.4,8,53.2,8,53,8.2c-0.2,0.1-0.4,0.2-0.6,0.4h0c-0.2,0.2-0.3,0.3-0.4,0.6c-0.1,0.2-0.2,0.4-0.3,0.6c-0.1,0.2-0.2,0.4-0.2,0.7
		c-0.1,0.2-0.1,0.4-0.1,0.6c0,0.3,0.1,0.5,0.2,0.7c0.1,0.2,0.3,0.3,0.6,0.3c0.3,0,0.5-0.1,0.8-0.3c0.3-0.2,0.5-0.5,0.7-0.8
		c0.2-0.3,0.4-0.6,0.5-1c0.1-0.4,0.2-0.7,0.2-1c0-0.1,0-0.2,0-0.3c-0.1,0-0.1,0-0.2,0.1c-0.1,0.1-0.2,0.1-0.2,0.2
		c-0.1,0.1-0.1,0.2-0.2,0.2c-0.1,0.1-0.1,0.2-0.1,0.2H53.3z"/>
	<path class="st0" d="M60.3,11.4c-0.2,0.2-0.4,0.4-0.6,0.7c-0.2,0.2-0.4,0.4-0.7,0.5c-0.2,0.2-0.5,0.2-0.7,0.2c-0.1,0-0.3,0-0.4-0.1
		s-0.2-0.1-0.3-0.2c-0.1-0.1-0.2-0.2-0.2-0.3c-0.1-0.1-0.1-0.3-0.1-0.5c0-0.2,0-0.3,0.1-0.5c0-0.2,0.1-0.4,0.2-0.6
		c0.1-0.2,0.2-0.4,0.2-0.7c0.1-0.2,0.2-0.5,0.3-0.8c0.1-0.1,0.1-0.3,0.1-0.4c0-0.1,0.1-0.2,0.1-0.3c0-0.1,0-0.1-0.1-0.1
		c-0.1,0-0.2,0.1-0.4,0.3c-0.2,0.2-0.5,0.4-0.7,0.7c-0.2,0.2-0.4,0.5-0.6,0.7c-0.2,0.4-0.3,0.8-0.5,1.3c-0.1,0.4-0.2,0.9-0.2,1.3
		c0,0.1-0.1,0.1-0.2,0.1c-0.1,0-0.2,0-0.3-0.1c-0.1-0.1-0.2-0.1-0.3-0.2c-0.1-0.1-0.2-0.1-0.2-0.2c0-0.5,0.1-1,0.3-1.6
		c0.2-0.5,0.4-1,0.5-1.6c0.1-0.2,0.2-0.5,0.3-0.8c0.1-0.3,0.2-0.5,0.3-0.8c0.1,0,0.2,0,0.3,0s0.3,0.1,0.4,0.2
		c0.1,0.1,0.2,0.2,0.3,0.3c0.1,0.1,0.1,0.2,0.1,0.4h0c0,0,0,0,0,0c0.3-0.2,0.5-0.5,0.8-0.6c0.3-0.2,0.6-0.3,0.9-0.3
		c0.1,0,0.2,0,0.3,0.1c0.1,0.1,0.2,0.1,0.3,0.2c0.1,0.1,0.1,0.2,0.2,0.3c0,0.1,0.1,0.2,0,0.3c-0.1,0.3-0.2,0.6-0.4,0.9
		c-0.1,0.3-0.2,0.5-0.3,0.7c-0.1,0.2-0.1,0.3-0.2,0.5c-0.1,0.2-0.1,0.3-0.2,0.5c-0.1,0.2-0.1,0.3-0.1,0.5c0,0.2-0.1,0.3-0.1,0.5
		c0,0,0,0.1,0,0.1c0,0,0.1,0,0.2,0c0.2-0.1,0.4-0.3,0.7-0.5c0.3-0.2,0.5-0.6,0.8-1c0.1-0.2,0.3-0.4,0.4-0.6l0.2-0.3
		c0,0,0.1-0.1,0.1-0.1c0.1,0,0.1,0,0.2,0c0.1,0,0.1,0,0.1,0.1c0,0,0,0.1,0,0.1l-0.5,0.9C60.6,11,60.5,11.2,60.3,11.4z"/>
	<path class="st0" d="M61.1,7.6c-0.1,0-0.1,0-0.2,0c0,0-0.1,0-0.1-0.1c0,0,0-0.1,0-0.1c0,0,0-0.1,0.1-0.1c0.5-0.3,1-0.6,1.5-0.8
		C62.7,5.7,63,5,63.2,4.4c0.1,0,0.2,0,0.3,0c0.1,0,0.3,0.1,0.4,0.2c0.1,0.1,0.2,0.2,0.3,0.3c0.1,0.1,0.1,0.2,0.1,0.4
		c0,0.1-0.1,0.2-0.1,0.3C64.1,5.7,64,5.8,63.9,6c0.5-0.1,1-0.2,1.6-0.2c0.1,0,0.2,0,0.3,0c0.1,0,0.2,0,0.3,0c0,0.1,0,0.1,0,0.2
		S66,6.2,65.9,6.3c0,0.1-0.1,0.1-0.2,0.1s-0.1,0.1-0.2,0c-0.1,0-0.2,0-0.2,0c-0.1,0-0.2,0-0.2,0c-0.2,0-0.5,0-0.7,0
		c-0.2,0-0.5,0.1-0.7,0.1l-0.5,1l-0.1,0.1C63,7.8,63,8,62.8,8.2c-0.1,0.2-0.2,0.5-0.4,0.7s-0.3,0.5-0.4,0.8
		c-0.1,0.3-0.2,0.6-0.4,0.8c-0.1,0.3-0.2,0.5-0.3,0.7s-0.1,0.4-0.1,0.6c0,0.2,0,0.2,0.1,0.3h0.1c0.2-0.1,0.4-0.2,0.5-0.3
		c0.2-0.2,0.3-0.3,0.5-0.5c0.2-0.2,0.3-0.4,0.5-0.6c0.1-0.2,0.3-0.4,0.4-0.6h0c0-0.1,0.1-0.1,0.1-0.2c0-0.1,0.1-0.1,0.1-0.2
		c0,0,0.1-0.1,0.1-0.1c0.1,0,0.1,0,0.2,0c0.1,0,0.1,0,0.1,0.1c0,0,0,0.1,0,0.1l-0.3,0.4c-0.1,0.2-0.2,0.3-0.3,0.5
		c-0.1,0.2-0.2,0.4-0.4,0.5c-0.1,0.2-0.3,0.3-0.4,0.5c-0.1,0.2-0.3,0.3-0.5,0.4c0,0-0.1,0.1-0.2,0.1c-0.1,0.1-0.2,0.1-0.3,0.2
		c-0.1,0-0.2,0.1-0.3,0.1c-0.1,0-0.3,0-0.4,0c-0.3,0-0.5-0.1-0.6-0.3c-0.1-0.2-0.2-0.4-0.2-0.7c0-0.1,0-0.1,0-0.2c0-0.1,0-0.1,0-0.2
		c0-0.3,0.1-0.6,0.2-0.9c0.1-0.3,0.2-0.6,0.3-0.9c0.1-0.3,0.3-0.6,0.4-0.9c0.2-0.3,0.3-0.6,0.5-0.9L62,7.1c-0.2,0.1-0.3,0.1-0.5,0.2
		C61.4,7.4,61.2,7.5,61.1,7.6L61.1,7.6z"/>
	<path class="st0" d="M67.5,11c-0.1,0.2-0.3,0.4-0.5,0.6c-0.2,0.2-0.4,0.4-0.6,0.6c-0.2,0.2-0.5,0.3-0.7,0.4
		c-0.3,0.1-0.5,0.2-0.8,0.1c-0.3,0-0.5-0.1-0.7-0.3c-0.1-0.2-0.2-0.4-0.2-0.6c0-0.2,0-0.3,0.1-0.5s0.1-0.3,0.2-0.5
		c0.1-0.2,0.2-0.3,0.3-0.5c0.1-0.2,0.2-0.3,0.3-0.5c0,0,0.1-0.1,0.1-0.1c0-0.1,0.1-0.1,0.1-0.1l0.2-0.3c0.1-0.2,0.2-0.3,0.3-0.5
		c0.1-0.1,0.2-0.2,0.2-0.2c-0.1,0-0.2,0-0.2,0c-0.1,0-0.1,0-0.2,0.1c-0.1,0-0.2,0-0.2,0.1c-0.1,0-0.2,0-0.3,0h-0.1
		c-0.2,0.2-0.3,0.4-0.4,0.7c-0.1,0.2-0.3,0.4-0.4,0.7c0,0-0.1,0.1-0.1,0.1c-0.1,0-0.1,0-0.2,0c-0.1,0-0.1,0-0.1-0.1c0,0,0-0.1,0-0.1
		c0.1-0.1,0.1-0.2,0.2-0.3c0.1-0.1,0.1-0.2,0.2-0.3C63.9,9.2,64,9.1,64.1,9c0.1-0.1,0.1-0.2,0.2-0.4c-0.1-0.1-0.2-0.2-0.2-0.3
		c0-0.1,0-0.2,0.1-0.3c0-0.1,0.1-0.2,0.1-0.3c0.1-0.1,0.1-0.2,0.2-0.3c0.1-0.1,0.1-0.2,0.2-0.3c0.1-0.1,0.1-0.2,0.2-0.3
		s0.1-0.2,0.1-0.3c0.2,0.1,0.4,0.2,0.5,0.3c0.2,0.1,0.3,0.3,0.3,0.4c0,0.1,0,0.2-0.1,0.3l-0.5,0.7c0,0,0,0.1,0.1,0
		c0.1,0,0.2,0,0.3-0.1c0.1,0,0.3-0.1,0.4-0.2c0.2-0.1,0.3-0.1,0.4-0.2c0.1-0.1,0.3-0.1,0.4-0.2C66.9,7.6,67,7.5,67,7.5
		c0,0,0.1,0,0.2,0c0.1,0,0.1,0.1,0.2,0.1c0.1,0,0.1,0.1,0.2,0.1c0,0,0.1,0.1,0.1,0.1c0.1,0.1,0.1,0.2,0,0.3c0,0.1-0.1,0.3-0.2,0.4
		c-0.1,0.2-0.2,0.3-0.4,0.5c-0.1,0.2-0.3,0.4-0.4,0.6c-0.1,0.1-0.2,0.2-0.3,0.4c-0.1,0.1-0.2,0.2-0.3,0.4c-0.1,0.1-0.1,0.2-0.2,0.3
		c-0.1,0.1-0.2,0.2-0.2,0.4c-0.1,0.1-0.1,0.3-0.2,0.4c-0.1,0.1-0.1,0.2-0.1,0.3c0,0.2,0.1,0.3,0.2,0.3c0.1,0,0.2,0,0.3-0.1
		c0.1-0.1,0.2-0.1,0.4-0.3c0.1-0.1,0.3-0.2,0.4-0.4c0.1-0.1,0.3-0.3,0.4-0.5c0.1-0.2,0.3-0.4,0.4-0.6s0.2-0.4,0.3-0.5
		c0,0,0.1-0.1,0.1-0.1c0.1,0,0.1,0,0.2,0c0.1,0,0.1,0,0.1,0.1c0,0,0,0.1,0,0.1c0,0.1-0.1,0.2-0.1,0.2c0,0.1-0.1,0.2-0.1,0.2
		c-0.1,0.1-0.1,0.2-0.2,0.3C67.6,10.8,67.6,10.9,67.5,11z"/>
	<path class="st0" d="M72,8.9c0,0,0,0.1-0.1,0.1c-0.1,0-0.1,0-0.2,0c-0.1,0-0.1,0-0.2,0c-0.1,0-0.1-0.1-0.1-0.1c0,0,0-0.1,0-0.1
		c0,0,0-0.1,0-0.1c0-0.1,0-0.2,0-0.3c0-0.1,0-0.2-0.1-0.3c0-0.1-0.1-0.1-0.2-0.2C71.1,8,71,8,70.9,8c-0.2,0-0.4,0-0.5,0.1
		c-0.2,0.1-0.3,0.2-0.5,0.4c-0.2,0.1-0.3,0.3-0.5,0.5c-0.1,0.2-0.3,0.4-0.4,0.6c-0.1,0.2-0.2,0.4-0.3,0.6c-0.1,0.2-0.1,0.4-0.2,0.6
		c0,0.1,0,0.2-0.1,0.3c0,0.1,0,0.2,0,0.3c0,0.1,0,0.2,0,0.3c0,0.1,0,0.2,0.1,0.2c0,0.1,0.1,0.1,0.2,0.1c0.1,0,0.2,0,0.3,0
		c0.1,0,0.2-0.1,0.4-0.2c0.1-0.1,0.3-0.3,0.5-0.5c0.2-0.2,0.3-0.4,0.4-0.5s0.3-0.4,0.4-0.5c0.1-0.2,0.1-0.4,0.2-0.6
		C70.9,9.5,71,9.3,71,9.1h0.1c0.1,0,0.2,0,0.3,0c0.1,0,0.3,0.1,0.4,0.2c0.1,0.1,0.2,0.2,0.3,0.3c0.1,0.1,0.1,0.2,0.1,0.4
		c0,0,0,0.1-0.1,0.1c0,0.1,0,0.1-0.1,0.2c-0.1,0.1-0.1,0.3-0.2,0.4c-0.1,0.1-0.1,0.3-0.2,0.4c0,0.1-0.1,0.3-0.1,0.4
		c0,0.1,0,0.2,0,0.3c0,0.1,0,0.2,0,0.3h0.1c0.2-0.1,0.4-0.2,0.5-0.3c0.2-0.2,0.3-0.3,0.5-0.5c0.2-0.2,0.3-0.4,0.5-0.6
		c0.1-0.2,0.3-0.4,0.4-0.6c0,0,0.1-0.1,0.1-0.1c0,0,0-0.1,0.1-0.1c0,0,0.1-0.1,0.1-0.1c0.1,0,0.1,0,0.2,0c0.1,0,0.1,0,0.1,0.1
		c0,0,0,0.1,0,0.1c0,0.1-0.1,0.1-0.1,0.2c0,0.1-0.1,0.1-0.1,0.2c-0.2,0.4-0.5,0.7-0.7,1.1c-0.3,0.4-0.6,0.7-0.9,1
		c0,0-0.1,0.1-0.2,0.1c-0.1,0.1-0.2,0.1-0.3,0.2c-0.1,0-0.2,0.1-0.3,0.1c-0.1,0-0.3,0-0.4,0c-0.3,0-0.6-0.1-0.7-0.3
		c-0.2-0.2-0.2-0.4-0.2-0.6v-0.1c-0.1,0.1-0.3,0.3-0.4,0.4c-0.1,0.1-0.3,0.2-0.4,0.3c-0.2,0.1-0.3,0.2-0.5,0.2
		c-0.2,0.1-0.3,0.1-0.5,0.1c-0.3,0-0.5-0.1-0.6-0.2s-0.3-0.2-0.4-0.3c-0.1-0.1-0.2-0.3-0.2-0.4c0-0.2-0.1-0.3-0.1-0.4
		c0-0.1,0-0.1,0-0.2s0-0.1,0-0.1c0-0.2,0.1-0.5,0.2-0.7c0.1-0.3,0.2-0.5,0.4-0.8c0.2-0.3,0.4-0.5,0.6-0.8c0.2-0.2,0.5-0.5,0.7-0.7
		c0.3-0.2,0.5-0.3,0.8-0.5c0.3-0.1,0.6-0.2,0.9-0.2c0.2,0,0.4,0,0.5,0.1c0.2,0,0.3,0.1,0.4,0.2c0.1,0.1,0.2,0.2,0.2,0.3
		C71.9,8.2,72,8.4,72,8.5C72,8.7,72,8.8,72,8.9z"/>
	<path class="st0" d="M74.7,7.5c0.1,0,0.2,0,0.3,0c0.1,0,0.2,0.1,0.4,0.2c0.1,0.1,0.2,0.2,0.3,0.3c0.1,0.1,0.1,0.2,0.1,0.3L75.3,9
		c-0.1,0.2-0.2,0.4-0.3,0.6c-0.1,0.2-0.2,0.4-0.4,0.7c-0.1,0.2-0.2,0.4-0.3,0.7c-0.1,0.2-0.2,0.4-0.2,0.6C74,11.7,74,11.9,74,12
		c0,0.1,0,0.2,0.1,0.2h0.1c0.2-0.1,0.4-0.2,0.6-0.3c0.2-0.1,0.4-0.3,0.6-0.5c0.2-0.2,0.3-0.4,0.5-0.6c0.2-0.2,0.3-0.4,0.5-0.6
		l0.2-0.2c0,0,0.1-0.1,0.1-0.1c0.1,0,0.1,0,0.2,0s0.1,0,0.1,0.1c0,0,0,0.1,0,0.1h0c-0.3,0.4-0.6,0.8-0.9,1.2
		c-0.3,0.4-0.7,0.8-1.1,1.1c-0.1,0-0.1,0.1-0.2,0.1s-0.2,0.1-0.3,0.2c-0.1,0-0.2,0.1-0.3,0.1c-0.1,0-0.2,0-0.4,0
		c-0.3,0-0.4-0.1-0.6-0.2c-0.1-0.2-0.2-0.3-0.2-0.6c0-0.2,0-0.4,0.1-0.6h0c0-0.1,0.1-0.3,0.2-0.5c0.1-0.2,0.1-0.4,0.2-0.6
		c0.1-0.2,0.2-0.4,0.3-0.6c0.1-0.2,0.2-0.4,0.3-0.6c0.1-0.3,0.3-0.6,0.4-0.9C74.5,8,74.6,7.7,74.7,7.5L74.7,7.5z M75.7,4.6
		c0.1,0,0.2,0,0.3,0.1c0.1,0.1,0.2,0.2,0.4,0.3c0.1,0.1,0.2,0.2,0.3,0.3c0.1,0.1,0.1,0.2,0.1,0.2c0,0.1-0.1,0.2-0.2,0.4
		c-0.1,0.1-0.1,0.3-0.2,0.4c-0.1,0.1-0.1,0.3-0.2,0.4c-0.1,0.1-0.1,0.3-0.2,0.5c-0.1,0-0.2,0-0.3-0.1c-0.1-0.1-0.2-0.1-0.3-0.2
		c-0.1-0.1-0.1-0.2-0.2-0.2c-0.1-0.1-0.1-0.1-0.1-0.2c0-0.1,0-0.2,0.1-0.4c0-0.1,0.1-0.3,0.1-0.5c0-0.2,0.1-0.4,0.1-0.5
		c0-0.2,0.1-0.3,0.1-0.5H75.7z M75.7,8.4L75.7,8.4c0.1-0.2,0.1-0.2,0.1-0.2C75.8,8.2,75.8,8.2,75.7,8.4z"/>
	<path class="st0" d="M80.3,11c-0.1,0.2-0.3,0.4-0.5,0.6c-0.2,0.2-0.4,0.4-0.6,0.6c-0.2,0.2-0.5,0.3-0.7,0.4
		c-0.3,0.1-0.5,0.2-0.8,0.1c-0.3,0-0.5-0.1-0.7-0.3c-0.1-0.2-0.2-0.4-0.2-0.6c0-0.2,0-0.3,0.1-0.5s0.1-0.3,0.2-0.5
		c0.1-0.2,0.2-0.3,0.3-0.5c0.1-0.2,0.2-0.3,0.3-0.5c0,0,0.1-0.1,0.1-0.1c0-0.1,0.1-0.1,0.1-0.1l0.2-0.3c0.1-0.2,0.2-0.3,0.3-0.5
		c0.1-0.1,0.2-0.2,0.2-0.2c-0.1,0-0.2,0-0.2,0s-0.1,0-0.2,0.1c-0.1,0-0.2,0-0.2,0.1c-0.1,0-0.2,0-0.3,0h-0.1
		c-0.2,0.2-0.3,0.4-0.5,0.7c-0.1,0.2-0.3,0.4-0.4,0.7c0,0-0.1,0.1-0.1,0.1c-0.1,0-0.1,0-0.2,0s-0.1,0-0.1-0.1c0,0,0-0.1,0-0.1
		c0.1-0.1,0.1-0.2,0.2-0.3c0.1-0.1,0.1-0.2,0.2-0.3c0.1-0.1,0.1-0.2,0.2-0.3c0.1-0.1,0.1-0.2,0.2-0.4C77,8.6,77,8.5,77,8.3
		c0-0.1,0-0.2,0.1-0.3c0-0.1,0.1-0.2,0.1-0.3c0.1-0.1,0.1-0.2,0.2-0.3c0.1-0.1,0.1-0.2,0.2-0.3c0.1-0.1,0.1-0.2,0.2-0.3
		c0-0.1,0.1-0.2,0.1-0.3c0.2,0.1,0.4,0.2,0.5,0.3s0.3,0.3,0.3,0.4c0,0.1,0,0.2-0.1,0.3L78,8.3c0,0,0,0.1,0.1,0c0.1,0,0.2,0,0.3-0.1
		c0.1,0,0.3-0.1,0.4-0.2C79,8,79.1,7.9,79.3,7.9c0.1-0.1,0.3-0.1,0.4-0.2c0.1-0.1,0.2-0.1,0.2-0.2c0,0,0.1,0,0.2,0
		c0.1,0,0.1,0.1,0.2,0.1c0.1,0,0.1,0.1,0.2,0.1c0,0,0.1,0.1,0.1,0.1c0.1,0.1,0.1,0.2,0,0.3c0,0.1-0.1,0.3-0.2,0.4
		c-0.1,0.2-0.2,0.3-0.4,0.5c-0.1,0.2-0.3,0.4-0.4,0.6c-0.1,0.1-0.2,0.2-0.3,0.4c-0.1,0.1-0.2,0.2-0.3,0.4c-0.1,0.1-0.1,0.2-0.2,0.3
		c-0.1,0.1-0.2,0.2-0.2,0.4c-0.1,0.1-0.1,0.3-0.2,0.4c-0.1,0.1-0.1,0.2-0.1,0.3c0,0.2,0.1,0.3,0.2,0.3c0.1,0,0.2,0,0.3-0.1
		c0.1-0.1,0.2-0.1,0.4-0.3c0.1-0.1,0.3-0.2,0.4-0.4c0.1-0.1,0.3-0.3,0.4-0.5c0.1-0.2,0.2-0.4,0.4-0.6s0.2-0.4,0.3-0.5
		c0,0,0.1-0.1,0.1-0.1c0.1,0,0.1,0,0.2,0c0.1,0,0.1,0,0.1,0.1c0,0,0,0.1,0,0.1c0,0.1-0.1,0.2-0.1,0.2c0,0.1-0.1,0.2-0.1,0.2
		c-0.1,0.1-0.1,0.2-0.2,0.3C80.5,10.8,80.4,10.9,80.3,11z"/>
	<path class="st0" d="M84.3,8.9c-0.3,0.5-0.7,1-1.2,1.4c-0.5,0.4-1.1,0.6-1.7,0.8v0.1c0,0.2,0,0.4,0.1,0.7c0.1,0.2,0.2,0.4,0.4,0.4
		c0.1,0,0.3,0,0.5,0c0.2-0.1,0.4-0.1,0.6-0.3c0.2-0.1,0.4-0.3,0.6-0.5c0.2-0.2,0.4-0.5,0.6-0.8c0.1-0.2,0.2-0.3,0.3-0.5
		s0.2-0.3,0.3-0.4c0-0.1,0.1-0.1,0.2-0.1c0.1,0,0.1,0,0.2,0c0.1,0,0.1,0,0.1,0.1c0,0,0,0.1,0,0.2l-0.2,0.3c-0.2,0.3-0.4,0.6-0.6,0.9
		s-0.5,0.7-0.9,1c-0.2,0.2-0.4,0.3-0.6,0.4c-0.2,0.1-0.4,0.2-0.6,0.2s-0.3,0.1-0.5,0.1c-0.1,0-0.3,0-0.3,0c-0.5,0-0.9-0.1-1.2-0.4
		c-0.3-0.3-0.4-0.6-0.5-1c0-0.4,0.1-0.8,0.2-1.2c0.2-0.4,0.4-0.8,0.8-1.3c0.1-0.1,0.3-0.3,0.5-0.5c0.2-0.2,0.4-0.3,0.6-0.5
		c0.2-0.1,0.5-0.3,0.8-0.4c0.3-0.1,0.5-0.1,0.8-0.1c0.3,0,0.5,0.1,0.6,0.2c0.2,0.1,0.2,0.3,0.2,0.5C84.5,8.4,84.4,8.7,84.3,8.9z
		 M83.6,8c-0.3,0.1-0.5,0.2-0.8,0.4c-0.2,0.2-0.5,0.4-0.7,0.7C82,9.4,81.9,9.7,81.7,10c-0.1,0.3-0.2,0.6-0.3,0.8
		c0.5-0.2,1-0.4,1.4-0.8c0.4-0.3,0.7-0.8,1-1.3c0.1-0.1,0.1-0.3,0.1-0.4c0-0.1,0-0.2-0.1-0.2S83.7,8,83.6,8z"/>
	<path class="st0" d="M83.8,11.6c0-0.2,0.1-0.4,0.2-0.7c0.1-0.2,0.3-0.4,0.5-0.5c0-0.1,0.1-0.1,0.1-0.2c0.1-0.1,0.1-0.1,0.1-0.2
		c0.2-0.3,0.4-0.6,0.6-0.9c0.2-0.3,0.4-0.6,0.6-0.9C85.9,8.1,86,8.1,86,8c0,0,0.1-0.1,0.1-0.2c0.1-0.2,0.2-0.3,0.4-0.5
		c0.1-0.2,0.4-0.4,0.6-0.6c0.1,0,0.2,0.1,0.3,0.2C87.6,7,87.7,7,87.8,7.1c0.1,0.1,0.2,0.2,0.2,0.2c0,0.1,0,0.1,0,0.2h0
		c-0.1,0.1-0.2,0.2-0.2,0.2c-0.1,0.1-0.1,0.2-0.2,0.3l-0.1,0.2c-0.1,0.2-0.2,0.5-0.3,0.7c-0.1,0.3-0.1,0.5-0.1,0.8
		c0,0.1,0,0.3,0,0.4c0,0.1,0,0.3,0,0.4l0,0.6c0,0.3,0,0.5-0.1,0.7c-0.1,0.2-0.2,0.4-0.4,0.5c-0.2,0.1-0.4,0.3-0.6,0.3
		c-0.2,0.1-0.5,0.1-0.7,0.1c-0.5,0-0.9-0.2-1.2-0.4C83.9,12.2,83.8,11.9,83.8,11.6z M85.8,9.8c0-0.1,0-0.3,0-0.4
		c0-0.1,0-0.3,0.1-0.4c-0.1,0.1-0.2,0.3-0.3,0.4c-0.1,0.2-0.2,0.3-0.3,0.4l-0.2,0.3c0.1,0,0.2,0.1,0.3,0.1c0,0,0,0.1,0.1,0.2
		c0,0.1,0.1,0.2,0.1,0.3c0,0.1,0.1,0.2,0.1,0.3c0,0.1,0,0.1,0,0.2C85.5,11,85.4,11,85.3,11c-0.1,0-0.2,0-0.3,0.1
		c-0.1,0-0.2,0.1-0.3,0.1c-0.1,0.1-0.1,0.1-0.2,0.2c0,0.1-0.1,0.2-0.1,0.3c0,0.1,0,0.1,0,0.2c0,0.1,0,0.1,0.1,0.2
		c0.1,0.1,0.2,0.2,0.3,0.3c0.1,0.1,0.2,0.1,0.3,0.1c0.1,0,0.2,0,0.3-0.1c0.1-0.1,0.2-0.1,0.2-0.2c0.1-0.1,0.1-0.2,0.1-0.3
		c0-0.1,0-0.3,0-0.4c0-0.1,0-0.2,0-0.4c0-0.1,0-0.3,0-0.4c0-0.1,0-0.3,0-0.4C85.8,10.1,85.8,10,85.8,9.8z"/>
</g>
</svg>
